<svg xmlns="http://www.w3.org/2000/svg" viewBox="0 0 1600 900">
<defs><linearGradient id="sky" x2="0" y2="1"><stop stop-color="#0b6d4c"/><stop offset="1" stop-color="#082b1e"/></linearGradient><linearGradient id="glow"><stop stop-color="#8aff7c" stop-opacity=".8"/><stop offset="1" stop-color="#00d9ff" stop-opacity="0"/></linearGradient></defs>
<rect width="1600" height="900" fill="url(#sky)"/>
<circle cx="1240" cy="180" r="180" fill="url(#glow)" opacity=".65"/>
<g opacity=".55" fill="#fff"><circle cx="160" cy="180" r="45"/><circle cx="220" cy="170" r="70"/><circle cx="285" cy="190" r="40"/></g>
<g fill="#10172a" opacity=".78"><path d="M-100 620 L-10 470 L80 620Z"/><path d="M80 620 L170 420 L260 620Z"/><path d="M260 620 L350 500 L440 620Z"/><path d="M440 620 L530 450 L620 620Z"/><path d="M620 620 L710 400 L800 620Z"/><path d="M800 620 L890 480 L980 620Z"/><path d="M980 620 L1070 430 L1160 620Z"/><path d="M1160 620 L1250 380 L1340 620Z"/><path d="M1340 620 L1430 460 L1520 620Z"/><path d="M1520 620 L1610 410 L1700 620Z"/></g>
<path d="M0 690 C300 610 500 650 800 590 C1100 530 1300 640 1600 560 L1600 900 L0 900Z" fill="#11151f"/>
<path d="M0 730 C300 690 540 720 800 660 C1090 600 1300 710 1600 650" fill="none" stroke="#cfd8e5" stroke-width="12" opacity=".75"/>
<g opacity=".9"><rect x="80" y="590" width="45" height="160" rx="5" fill="#00d9ff" opacity=".45"/><rect x="220" y="530" width="45" height="120" rx="5" fill="#00d9ff" opacity=".45"/><rect x="360" y="550" width="45" height="80" rx="5" fill="#00d9ff" opacity=".45"/><rect x="500" y="570" width="45" height="130" rx="5" fill="#00d9ff" opacity=".45"/><rect x="640" y="590" width="45" height="90" rx="5" fill="#00d9ff" opacity=".45"/><rect x="780" y="530" width="45" height="140" rx="5" fill="#00d9ff" opacity=".45"/><rect x="920" y="550" width="45" height="100" rx="5" fill="#00d9ff" opacity=".45"/><rect x="1060" y="570" width="45" height="150" rx="5" fill="#00d9ff" opacity=".45"/><rect x="1200" y="590" width="45" height="110" rx="5" fill="#00d9ff" opacity=".45"/><rect x="1340" y="530" width="45" height="160" rx="5" fill="#00d9ff" opacity=".45"/><rect x="1480" y="550" width="45" height="120" rx="5" fill="#00d9ff" opacity=".45"/></g>
<text x="80" y="120" fill="#fff" font-family="Arial Black,Arial" font-size="58" letter-spacing="10">JUNGLE FALLS</text><text x="84" y="170" fill="#fff" opacity=".65" font-family="Arial" font-size="22" letter-spacing="8">RAINFOREST</text>
</svg>